<svg xmlns="http://www.w3.org/2000/svg" width="197" height="33" viewBox="0 0 197 33" fill="none"><path d="M18.7584 16.7258V18.1988C18.7584 19.0405 18.6064 19.9056 18.3025 20.794C18.0219 21.6825 17.5777 22.4891 16.9698 23.2139C16.3853 23.9387 15.6371 24.5349 14.7253 25.0025C13.8368 25.4701 12.7847 25.7039 11.5689 25.7039C10.1193 25.7039 8.88015 25.4117 7.85141 24.8271C6.84605 24.2192 6.01604 23.436 5.36138 22.4774C4.73011 21.5188 4.2625 20.4433 3.95856 19.2509C3.67799 18.0585 3.53771 16.8661 3.53771 15.6737C3.53771 14.4813 3.67799 13.2889 3.95856 12.0965C4.2625 10.9041 4.73011 9.82856 5.36138 8.86996C6.01604 7.91136 6.83436 7.1398 7.81634 6.55529C8.8217 5.9474 10.0258 5.64345 11.4286 5.64345C12.5509 5.64345 13.4861 5.79543 14.2343 6.09937C15.0058 6.37994 15.6488 6.69557 16.1632 7.04628C16.7009 7.39699 17.1685 7.72432 17.566 8.02826C17.9635 8.30883 18.3492 8.44911 18.7233 8.44911C19.1676 8.44911 19.5183 8.30883 19.7755 8.02826C20.056 7.72432 20.1963 7.37361 20.1963 6.97614C20.1963 6.64881 19.9859 6.26304 19.565 5.81881C19.1676 5.3512 18.5947 4.90697 17.8466 4.48612C17.0984 4.06527 16.1982 3.71456 15.1461 3.434C14.094 3.13005 12.925 2.97808 11.639 2.97808C9.67508 2.97808 7.98 3.34047 6.55379 4.06527C5.12758 4.76669 3.94687 5.7136 3.01165 6.906C2.07643 8.07502 1.37501 9.43109 0.907402 10.9742C0.463173 12.4939 0.241058 14.0604 0.241058 15.6737C0.241058 17.2869 0.474863 18.8651 0.942473 20.4082C1.41008 21.928 2.09981 23.284 3.01165 24.4764C3.92348 25.6455 5.05744 26.5924 6.41351 27.3172C7.79295 28.0186 9.38283 28.3693 11.1831 28.3693C13.3108 28.3693 15.0526 28.0303 16.4087 27.3522C17.7881 26.6508 18.8753 25.739 19.6702 24.6167C20.4886 23.4945 21.0497 22.2202 21.3536 20.794C21.681 19.3444 21.8446 17.8714 21.8446 16.3751C21.8446 15.3931 21.6693 14.7268 21.3186 14.3761C20.9679 14.0254 20.395 13.85 19.6001 13.85H14.4096C13.9654 13.85 13.603 13.9669 13.3224 14.2007C13.0419 14.4345 12.9016 14.7969 12.9016 15.2879C12.9016 15.7789 13.0419 16.1413 13.3224 16.3751C13.603 16.6089 13.9654 16.7258 14.4096 16.7258H18.7584Z" fill="#EC1C24"></path><path d="M40.011 10.7989C40.011 10.2611 39.8473 9.87532 39.52 9.64152C39.1927 9.40771 38.877 9.29081 38.5731 9.29081C38.2458 9.29081 37.9184 9.40771 37.5911 9.64152C37.2872 9.87532 37.1352 10.2611 37.1352 10.7989V11.7808H37.0651C36.3403 10.9859 35.5804 10.378 34.7855 9.95715C33.9905 9.51292 33.0553 9.29081 31.9798 9.29081C30.6705 9.29081 29.5015 9.55968 28.4727 10.0974C27.4674 10.6118 26.614 11.3132 25.9126 12.2017C25.2111 13.0901 24.6734 14.1072 24.2993 15.2528C23.9486 16.3985 23.7732 17.5909 23.7732 18.83C23.7732 20.0692 23.9486 21.2616 24.2993 22.4073C24.6734 23.5529 25.2111 24.57 25.9126 25.4584C26.614 26.3469 27.4674 27.06 28.4727 27.5977C29.5015 28.1121 30.6705 28.3693 31.9798 28.3693C32.9852 28.3693 33.9087 28.1472 34.7504 27.7029C35.6155 27.2353 36.387 26.5222 37.0651 25.5636H37.1352V26.8612C37.1352 27.399 37.2872 27.7848 37.5911 28.0186C37.9184 28.2524 38.2458 28.3693 38.5731 28.3693C38.877 28.3693 39.1927 28.2524 39.52 28.0186C39.8473 27.7848 40.011 27.399 40.011 26.8612V10.7989ZM26.8595 18.83C26.8595 18.0351 26.9413 17.2402 27.105 16.4452C27.292 15.6269 27.5843 14.8904 27.9817 14.2358C28.4026 13.5577 28.9403 13.0083 29.595 12.5875C30.2496 12.1666 31.0446 11.9562 31.9798 11.9562C32.9384 11.9562 33.7333 12.1666 34.3646 12.5875C35.0193 13.0083 35.5453 13.5577 35.9428 14.2358C36.3636 14.8904 36.6559 15.6269 36.8196 16.4452C37.0066 17.2402 37.1001 18.0351 37.1001 18.83C37.1001 19.625 37.0066 20.4316 36.8196 21.2499C36.6559 22.0449 36.3636 22.7813 35.9428 23.4594C35.5453 24.114 35.0193 24.6518 34.3646 25.0726C33.7333 25.4935 32.9384 25.7039 31.9798 25.7039C31.0446 25.7039 30.2496 25.4935 29.595 25.0726C28.9403 24.6518 28.4026 24.114 27.9817 23.4594C27.5843 22.7813 27.292 22.0449 27.105 21.2499C26.9413 20.4316 26.8595 19.625 26.8595 18.83Z" fill="#EC1C24"></path><path d="M44.0674 26.721C44.0674 27.2353 44.2077 27.6445 44.4883 27.9484C44.7688 28.229 45.1429 28.3693 45.6105 28.3693C46.0781 28.3693 46.4522 28.229 46.7328 27.9484C47.0134 27.6445 47.1536 27.2353 47.1536 26.721V17.8481C47.1536 16.9362 47.2822 16.1647 47.5394 15.5334C47.7966 14.9021 48.1122 14.3761 48.4863 13.9552C48.8838 13.5344 49.328 13.2187 49.819 13.0083C50.31 12.7745 50.7776 12.6225 51.2218 12.5524C52.5078 12.3186 53.1507 11.7575 53.1507 10.869C53.1507 10.4248 52.9988 10.0507 52.6948 9.74673C52.3909 9.44278 51.97 9.29081 51.4323 9.29081C50.988 9.29081 50.5438 9.39602 50.0996 9.60645C49.6787 9.79349 49.2813 10.0507 48.9072 10.378C48.5565 10.6819 48.2291 11.0327 47.9252 11.4301C47.6446 11.8042 47.4108 12.1666 47.2238 12.5173H47.1536V10.9391C47.1536 10.4248 47.0134 10.0273 46.7328 9.74673C46.4522 9.44278 46.0781 9.29081 45.6105 9.29081C45.1429 9.29081 44.7688 9.44278 44.4883 9.74673C44.2077 10.0273 44.0674 10.4248 44.0674 10.9391V26.721Z" fill="#EC1C24"></path><path d="M67.65 18.83C67.65 19.625 67.5565 20.4316 67.3694 21.2499C67.2058 22.0449 66.9135 22.7813 66.4927 23.4594C66.0952 24.114 65.5691 24.6518 64.9145 25.0726C64.2832 25.4935 63.4883 25.7039 62.5297 25.7039C61.5945 25.7039 60.7995 25.4935 60.1449 25.0726C59.4902 24.6518 58.9525 24.114 58.5316 23.4594C58.1342 22.7813 57.8419 22.0449 57.6549 21.2499C57.4912 20.4316 57.4094 19.625 57.4094 18.83C57.4094 18.0351 57.4912 17.2402 57.6549 16.4452C57.8419 15.6269 58.1342 14.8904 58.5316 14.2358C58.9525 13.5577 59.4902 13.0083 60.1449 12.5875C60.7995 12.1666 61.5945 11.9562 62.5297 11.9562C63.4883 11.9562 64.2832 12.1666 64.9145 12.5875C65.5691 13.0083 66.0952 13.5577 66.4927 14.2358C66.9135 14.8904 67.2058 15.6269 67.3694 16.4452C67.5565 17.2402 67.65 18.0351 67.65 18.83ZM67.3344 26.721C67.3344 27.2353 67.4747 27.6445 67.7552 27.9484C68.0358 28.229 68.4099 28.3693 68.8775 28.3693C69.3451 28.3693 69.7192 28.229 69.9997 27.9484C70.2803 27.6445 70.4206 27.2353 70.4206 26.721V2.73258C70.4206 2.21821 70.2803 1.82074 69.9997 1.54018C69.7192 1.23623 69.3451 1.08426 68.8775 1.08426C68.4099 1.08426 68.0358 1.23623 67.7552 1.54018C67.4747 1.82074 67.3344 2.21821 67.3344 2.73258V11.8159H67.2642C67.0538 11.5353 66.7966 11.2431 66.4927 10.9391C66.1887 10.6352 65.8263 10.3663 65.4055 10.1325C64.9846 9.87532 64.5053 9.67659 63.9676 9.5363C63.4532 9.37264 62.8921 9.29081 62.2842 9.29081C61.0216 9.29081 59.8994 9.55968 58.9174 10.0974C57.9354 10.6118 57.0937 11.3132 56.3923 12.2017C55.7143 13.0901 55.1999 14.1072 54.8492 15.2528C54.4985 16.3985 54.3231 17.5909 54.3231 18.83C54.3231 20.0692 54.4985 21.2616 54.8492 22.4073C55.1999 23.5529 55.7143 24.57 56.3923 25.4584C57.0937 26.3469 57.9354 27.06 58.9174 27.5977C59.8994 28.1121 61.0216 28.3693 62.2842 28.3693C64.7158 28.3693 66.3758 27.5159 67.2642 25.8091H67.3344V26.721Z" fill="#EC1C24"></path><path d="M88.1897 20.0225C88.8677 20.0225 89.3236 19.8822 89.5574 19.6016C89.7912 19.321 89.9081 18.9119 89.9081 18.3741C89.9081 17.2519 89.7211 16.153 89.347 15.0775C88.9963 13.9786 88.4819 13.0083 87.8039 12.1666C87.1259 11.3015 86.2842 10.6118 85.2788 10.0974C84.2734 9.55968 83.1395 9.29081 81.8769 9.29081C80.5676 9.29081 79.3869 9.54799 78.3348 10.0624C77.3061 10.5767 76.4293 11.2782 75.7045 12.1666C75.0031 13.0317 74.4536 14.0487 74.0562 15.2178C73.6821 16.3634 73.495 17.5675 73.495 18.83C73.495 20.0692 73.6587 21.2616 73.986 22.4073C74.3133 23.5529 74.8277 24.57 75.5291 25.4584C76.2306 26.3469 77.119 27.06 78.1945 27.5977C79.27 28.1121 80.5559 28.3693 82.0523 28.3693C82.9641 28.3693 83.8643 28.2407 84.7527 27.9835C85.6412 27.7263 86.4361 27.4107 87.1375 27.0366C87.8623 26.6391 88.4352 26.2183 88.856 25.7741C89.3002 25.3298 89.5224 24.9207 89.5224 24.5466C89.5224 24.1023 89.4055 23.7633 89.1716 23.5295C88.9378 23.2957 88.6807 23.1788 88.4001 23.1788C88.1195 23.1788 87.8156 23.3074 87.4883 23.5646C87.1843 23.8218 86.7985 24.114 86.3309 24.4414C85.8867 24.7453 85.3256 25.0376 84.6475 25.3181C83.9695 25.5753 83.1161 25.7039 82.0874 25.7039C81.2223 25.7039 80.4507 25.5636 79.7727 25.2831C79.0947 24.9791 78.5101 24.57 78.0192 24.0556C77.5515 23.5412 77.1892 22.945 76.932 22.267C76.6982 21.5656 76.5813 20.8174 76.5813 20.0225H88.1897ZM76.5813 17.7078C76.6046 17.0064 76.7098 16.305 76.8969 15.6035C77.1073 14.9021 77.423 14.2825 77.8438 13.7448C78.2646 13.1837 78.8024 12.7394 79.4571 12.4121C80.1117 12.0614 80.9183 11.9094 81.8769 11.9562C82.7186 11.9562 83.4551 12.1315 84.0864 12.4822C84.7177 12.833 85.232 13.2889 85.6295 13.85C86.027 14.3878 86.3192 14.9956 86.5063 15.6737C86.7167 16.3517 86.8219 17.0297 86.8219 17.7078H76.5813Z" fill="#EC1C24"></path><path d="M92.8376 26.721C92.8376 27.2353 92.9779 27.6445 93.2585 27.9484C93.539 28.229 93.9131 28.3693 94.3807 28.3693C94.8484 28.3693 95.2224 28.229 95.503 27.9484C95.7836 27.6445 95.9239 27.2353 95.9239 26.721V16.5504C95.9239 15.7321 96.0525 15.0307 96.3096 14.4462C96.5668 13.8617 96.8941 13.3941 97.2916 13.0434C97.7125 12.6693 98.1801 12.4004 98.6945 12.2368C99.2088 12.0497 99.7232 11.9562 100.238 11.9562C100.752 11.9562 101.266 12.0497 101.781 12.2368C102.295 12.4004 102.751 12.6693 103.148 13.0434C103.569 13.3941 103.908 13.8617 104.165 14.4462C104.423 15.0307 104.551 15.7321 104.551 16.5504V26.721C104.551 27.2353 104.692 27.6445 104.972 27.9484C105.253 28.229 105.627 28.3693 106.094 28.3693C106.562 28.3693 106.936 28.229 107.217 27.9484C107.497 27.6445 107.637 27.2353 107.637 26.721V16.3751C107.637 15.0658 107.427 13.9669 107.006 13.0784C106.609 12.1666 106.094 11.4301 105.463 10.869C104.832 10.3079 104.13 9.91039 103.359 9.67659C102.611 9.4194 101.874 9.29081 101.149 9.29081C100.214 9.29081 99.2906 9.47785 98.3788 9.85194C97.467 10.226 96.672 10.8573 95.994 11.7458L95.9239 11.6756V10.9391C95.9239 10.4248 95.7836 10.0273 95.503 9.74673C95.2224 9.44278 94.8484 9.29081 94.3807 9.29081C93.9131 9.29081 93.539 9.44278 93.2585 9.74673C92.9779 10.0273 92.8376 10.4248 92.8376 10.9391V26.721Z" fill="#EC1C24"></path><path d="M115.035 25.8128L110.754 13.7059C110.4 12.667 110.223 11.8735 110.223 11.3256C110.223 10.7548 110.457 10.2753 110.925 9.88712C111.404 9.48755 112.015 9.28777 112.757 9.28777C113.351 9.28777 113.859 9.47042 114.281 9.83574C114.715 10.2011 115 10.6863 115.137 11.2913L118.049 20.9323H118.117L121.062 11.4968C121.279 10.7776 121.582 10.2296 121.97 9.85287C122.37 9.47613 122.923 9.28777 123.631 9.28777C124.35 9.28777 124.904 9.47613 125.292 9.85287C125.692 10.2296 125.989 10.7776 126.183 11.4968L129.128 20.9323H129.196L132.108 11.2913C132.267 10.6863 132.553 10.2011 132.964 9.83574C133.386 9.47042 133.9 9.28777 134.505 9.28777C134.985 9.28777 135.418 9.3848 135.807 9.57888C136.195 9.77296 136.491 10.0641 136.697 10.4522C136.914 10.829 137.022 11.2628 137.022 11.7537C137.022 12.0162 136.857 12.6441 136.526 13.6374L132.21 25.8128C131.617 27.5138 130.601 28.3643 129.162 28.3643C127.712 28.3643 126.742 27.5823 126.251 26.0183L123.665 17.8842H123.597L120.994 26.0183C120.503 27.5823 119.533 28.3643 118.083 28.3643C117.306 28.3643 116.679 28.1417 116.199 27.6965C115.72 27.2512 115.331 26.6233 115.035 25.8128Z" fill="#010101"></path><path d="M159.54 25.5559V11.8222C159.54 11.023 159.796 10.4008 160.31 9.95562C160.835 9.51038 161.44 9.28777 162.125 9.28777C163.769 9.28777 164.591 9.98986 164.591 11.3941H164.66C165.173 10.652 165.699 10.1154 166.235 9.78437C166.772 9.4533 167.428 9.28777 168.204 9.28777C168.855 9.28777 169.426 9.5218 169.917 9.98986C170.408 10.4579 170.653 11.1258 170.653 11.9934C170.653 12.4957 170.522 12.8782 170.259 13.1407C170.008 13.4033 169.66 13.6259 169.215 13.8086C168.77 13.9913 168.244 14.2025 167.639 14.4422C166.635 14.8989 165.876 15.3555 165.362 15.8122C164.848 16.2574 164.591 16.9252 164.591 17.8157V25.5559C164.591 26.1039 164.483 26.5948 164.266 27.0286C164.049 27.451 163.746 27.7821 163.358 28.0218C162.97 28.2502 162.536 28.3643 162.057 28.3643C161.303 28.3643 160.693 28.1075 160.224 27.5937C159.768 27.0686 159.54 26.3893 159.54 25.5559Z" fill="#010101"></path><path d="M171.218 25.5559V3.96208C171.218 3.1287 171.447 2.45514 171.903 1.94141C172.371 1.41626 172.982 1.15369 173.736 1.15369C174.227 1.15369 174.66 1.27356 175.037 1.5133C175.425 1.74162 175.728 2.07269 175.945 2.50651C176.162 2.92891 176.27 3.4141 176.27 3.96208V25.5559C176.27 26.1039 176.162 26.5948 175.945 27.0286C175.728 27.451 175.425 27.7821 175.037 28.0218C174.649 28.2502 174.215 28.3643 173.736 28.3643C172.982 28.3643 172.371 28.1075 171.903 27.5937C171.447 27.0686 171.218 26.3893 171.218 25.5559Z" fill="#010101"></path><path d="M196.357 3.96208V25.5559C196.357 26.1039 196.248 26.5948 196.032 27.0286C195.815 27.451 195.512 27.7821 195.124 28.0218C194.736 28.2502 194.302 28.3643 193.823 28.3643C192.464 28.3643 191.625 27.6622 191.305 26.258C190.837 27.0001 190.175 27.5766 189.319 27.9876C188.474 28.3872 187.589 28.5869 186.665 28.5869C185.055 28.5869 183.611 28.136 182.332 27.2341C181.065 26.3322 180.083 25.1449 179.387 23.6722C178.702 22.1995 178.359 20.6698 178.359 19.0829C178.359 17.3705 178.667 15.7494 179.284 14.2196C179.9 12.6898 180.825 11.4511 182.058 10.5036C183.302 9.55605 184.781 9.08227 186.493 9.08227C187.064 9.08227 187.635 9.15077 188.206 9.28777C188.777 9.41334 189.319 9.60171 189.833 9.85287C190.346 10.104 190.837 10.4294 191.305 10.829V3.96208C191.305 3.1287 191.534 2.45514 191.99 1.94141C192.458 1.41626 193.069 1.15369 193.823 1.15369C194.313 1.15369 194.747 1.27356 195.124 1.5133C195.512 1.74162 195.815 2.07269 196.032 2.50651C196.248 2.92891 196.357 3.4141 196.357 3.96208ZM191.305 18.689C191.305 17.3305 190.957 16.1603 190.261 15.1786C189.576 14.1968 188.6 13.7059 187.332 13.7059C186.51 13.7059 185.797 13.9627 185.192 14.4765C184.598 14.9788 184.153 15.6238 183.856 16.4115C183.559 17.1992 183.411 18.0155 183.411 18.8603C183.411 19.4425 183.497 20.0419 183.668 20.6583C183.839 21.2748 184.09 21.8342 184.421 22.3365C184.752 22.8274 185.163 23.2213 185.654 23.5181C186.157 23.8035 186.716 23.9462 187.332 23.9462C188.189 23.9462 188.919 23.6894 189.524 23.1756C190.129 22.6619 190.575 21.9998 190.86 21.1892C191.157 20.3672 191.305 19.5338 191.305 18.689Z" fill="#010101"></path><path fill-rule="evenodd" clip-rule="evenodd" d="M149.69 3.08219C149.816 2.92219 150.048 2.89471 150.208 3.02081L149.98 3.31051C150.208 3.02081 150.208 3.02089 150.208 3.02089L150.209 3.02123L150.209 3.02186L150.212 3.02374C150.214 3.02528 150.216 3.02738 150.22 3.03002C150.226 3.0353 150.235 3.04278 150.247 3.05237C150.27 3.07156 150.303 3.09924 150.344 3.13482C150.425 3.20592 150.539 3.30891 150.67 3.43899C150.93 3.69789 151.265 4.0701 151.553 4.51695C151.848 4.97498 152.056 5.52313 152.189 5.94313C152.256 6.15574 152.306 6.34109 152.339 6.4738C152.355 6.54024 152.367 6.59372 152.376 6.63109C152.38 6.64978 152.383 6.66446 152.385 6.67474C152.386 6.67858 152.387 6.68181 152.387 6.6844C152.388 6.68528 152.388 6.68608 152.388 6.68681L152.389 6.69029L152.389 6.69189C152.389 6.69189 152.389 6.692 152.027 6.76527L152.389 6.692C152.429 6.89166 152.3 7.08631 152.101 7.12677C151.901 7.16722 151.707 7.03826 151.666 6.8387L151.666 6.83862L151.666 6.83853L151.666 6.83671C151.665 6.83496 151.665 6.83208 151.664 6.82813C151.662 6.82023 151.659 6.80803 151.656 6.79191C151.649 6.75967 151.638 6.71184 151.623 6.65148C151.593 6.5306 151.547 6.36044 151.485 6.16533C151.361 5.7699 151.176 5.29384 150.933 4.91673C150.683 4.52844 150.386 4.19748 150.149 3.962C150.032 3.84489 149.93 3.75288 149.859 3.69079C149.823 3.65977 149.795 3.6363 149.777 3.62099C149.768 3.61333 149.761 3.60772 149.756 3.60423C149.754 3.60249 149.753 3.60127 149.752 3.6006L149.751 3.6L149.751 3.60007M149.69 3.08219C149.564 3.2421 149.591 3.47385 149.751 3.6L149.69 3.08219Z" fill="black"></path><path fill-rule="evenodd" clip-rule="evenodd" d="M158.523 7.49007C158.575 7.29312 158.457 7.09127 158.26 7.03924L158.166 7.39585C158.26 7.03924 158.26 7.0392 158.26 7.0392L158.26 7.03906L158.259 7.03881L158.256 7.03804C158.254 7.03743 158.25 7.0366 158.246 7.03557C158.238 7.03351 158.227 7.03066 158.212 7.02715C158.183 7.02014 158.141 7.01049 158.088 6.99928C157.982 6.97689 157.831 6.94817 157.649 6.92189C157.285 6.86957 156.787 6.82564 156.256 6.86406C155.713 6.90343 155.15 7.06691 154.734 7.21341C154.524 7.28758 154.346 7.35938 154.22 7.41286C154.157 7.43963 154.107 7.4619 154.072 7.4777C154.055 7.4856 154.041 7.49189 154.032 7.49632C154.028 7.49798 154.025 7.49938 154.023 7.5005C154.022 7.50088 154.021 7.50123 154.021 7.50155L154.017 7.50307L154.016 7.50377C154.016 7.50377 154.016 7.50382 154.175 7.83674L154.016 7.50382C153.832 7.59153 153.754 7.81168 153.842 7.99554C153.929 8.17936 154.149 8.25732 154.333 8.16973L154.333 8.16969L154.333 8.16965L154.335 8.16886C154.337 8.1681 154.339 8.16685 154.343 8.16514C154.35 8.16174 154.362 8.15651 154.377 8.14969C154.407 8.13606 154.452 8.11613 154.509 8.09181C154.623 8.04311 154.787 7.97718 154.98 7.90912C155.371 7.77118 155.862 7.63226 156.31 7.59984C156.77 7.56645 157.213 7.60448 157.544 7.65206C157.708 7.67573 157.843 7.70145 157.935 7.72101C157.981 7.73078 158.017 7.73898 158.04 7.74458C158.052 7.74738 158.06 7.74952 158.066 7.75088C158.069 7.75156 158.07 7.75205 158.071 7.75232L158.072 7.75256L158.072 7.75253M158.523 7.49007C158.471 7.68692 158.269 7.80438 158.072 7.75256L158.523 7.49007Z" fill="black"></path><path d="M155.909 12.7813C157.77 15.7385 158.048 19.682 156.307 23.1717C153.714 28.3675 147.625 30.5897 142.706 28.1352C137.787 25.6806 135.902 19.4788 138.495 14.283C140.269 10.7284 143.679 8.56555 147.231 8.33969C148.974 6.40747 151.43 5.77119 153.443 6.77622C155.484 7.7945 156.451 10.188 155.909 12.7813Z" fill="black"></path><path fill-rule="evenodd" clip-rule="evenodd" d="M151.24 9.95245C147.676 8.5017 143.533 9.75247 141.015 12.8771C141.089 12.9042 141.162 12.9358 141.235 12.9719C142.281 13.4941 142.706 14.7656 142.184 15.8119C141.661 16.8582 140.39 17.2831 139.344 16.761C139.264 16.7215 139.189 16.6776 139.117 16.6299C138.081 20.5523 139.57 24.6697 142.901 26.6623L151.24 9.95245ZM148.237 14.2185C147.715 15.2649 146.444 15.6898 145.397 15.1676C144.351 14.6455 143.926 13.374 144.448 12.3277C144.97 11.2814 146.242 10.8564 147.288 11.3786C148.334 11.9007 148.759 13.1722 148.237 14.2185ZM141.453 22.0175C142.499 22.5396 143.771 22.1147 144.293 21.0684C144.815 20.0221 144.39 18.7506 143.344 18.2284C142.298 17.7063 141.026 18.1312 140.504 19.1775C139.982 20.2238 140.407 21.4953 141.453 22.0175Z" fill="#EB1D25"></path><path fill-rule="evenodd" clip-rule="evenodd" d="M152.105 10.3841C155.406 12.3592 156.898 16.422 155.915 20.3131C155.849 20.2702 155.78 20.2305 155.707 20.1943C154.661 19.6722 153.389 20.0971 152.867 21.1434C152.345 22.1898 152.77 23.4613 153.816 23.9834C153.896 24.0229 153.976 24.057 154.058 24.0859C151.546 27.2715 147.361 28.5575 143.766 27.0939L152.105 10.3841ZM150.501 15.3482C149.979 16.3945 150.404 17.666 151.45 18.1881C152.496 18.7103 153.768 18.2854 154.29 17.239C154.812 16.1927 154.387 14.9212 153.341 14.3991C152.295 13.8769 151.023 14.3018 150.501 15.3482ZM148.348 25.4582C147.301 24.936 146.877 23.6645 147.399 22.6182C147.921 21.5719 149.192 21.147 150.239 21.6691C151.285 22.1913 151.71 23.4628 151.188 24.5091C150.666 25.5554 149.394 25.9803 148.348 25.4582Z" fill="#EB1D25"></path></svg>